{"title":"Laal Dupatta Malmal Ka DVDRip Xvid MP3 (1989)","uid":7638750,"size":1542578377,"categoryP":"video","categoryS":"movies","magnet":"?xt=urn:btih:07c81a77fbc8859323ea4ea13f1c2a03ea983185&amp;dn=Laal+Dupatta+Malmal+Ka+DVDRip+Xvid+MP3+%281989%29&amp;tr=udp%3A%2F%2Ftracker.openbittorrent.com%3A80&amp;tr=udp%3A%2F%2Fopen.demonii.com%3A1337&amp;tr=udp%3A%2F%2Ftracker.coppersurfer.tk%3A6969&amp;tr=udp%3A%2F%2Fexodus.desync.com%3A6969","seeders":0,"leechers":1,"uploader":"arsenal_rocks","files":16,"time":1347721303,"description":"Format                                   : Matroska\nFormat version                           : Version 2\nFile size                                : 1.42 GiB\nDuration                                 : 2h 20mn\nOverall bit rate                         : 1 441 Kbps\nEncoded date                             : UTC 2005-10-10 16:08:40\nWriting application                      : mkvmerge v5.6.0 ('Kenya Kane') built on May 27 2012 16:44:04\nWriting library                          : libebml v1.2.3 + libmatroska v1.3.0\n\nVideo\nID                                       : 1\nFormat                                   : xvid\nCodec ID                                 : xvid\nDuration                                 : 2h 20mn\nBit rate                                 : 1 285 Kbps\nWidth                                    : 384 pixels\nHeight                                   : 288 pixels\nDisplay aspect ratio                     : 4:3\nFrame rate                               : 29.970 fps\nBits/(Pixel*Frame)                       : 0.388\nStream size                              : 1.26 GiB (89%)\nDefault                                  : Yes\nForced                                   : No\n\nAudio\nID                                       : 2\nFormat                                   : MPEG Audio\nFormat version                           : Version 1\nFormat profile                           : Layer 3\nMode                                     : Joint stereo\nMode extension                           : MS Stereo\nMuxing mode                              : Header stripping\nCodec ID                                 : A_MPEG/L3\nCodec ID/Hint                            : MP3\nDuration                                 : 2h 20mn\nBit rate mode                            : Constant\nBit rate                                 : 128 Kbps\nChannel(s)                               : 2 channels\nSampling rate                            : 44.1 KHz\nCompression mode                         : Lossy\nStream size                              : 129 MiB (9%)\nDefault                                  : Yes\nForced                                   : No\n &lt;a href=&quot;\nhttp://www.shotpix.com/images/49931167323820395738.png&quot; rel=&quot;nofollow&quot; target=&quot;_NEW&quot;&gt;\nhttp://www.shotpix.com/images/49931167323820395738.png&lt;/a&gt; &lt;a href=&quot;\nhttp://www.shotpix.com/images/59892407036753943051.png&quot; rel=&quot;nofollow&quot; target=&quot;_NEW&quot;&gt;\nhttp://www.shotpix.com/images/59892407036753943051.png&lt;/a&gt; &lt;a href=&quot;\nhttp://www.shotpix.com/images/54151329781869836038.png&quot; rel=&quot;nofollow&quot; target=&quot;_NEW&quot;&gt;\nhttp://www.shotpix.com/images/54151329781869836038.png&lt;/a&gt; &lt;a href=&quot;\nhttp://www.shotpix.com/images/90819533439116645988.png&quot; rel=&quot;nofollow&quot; target=&quot;_NEW&quot;&gt;\nhttp://www.shotpix.com/images/90819533439116645988.png&lt;/a&gt; &lt;a href=&quot;\nhttp://www.shotpix.com/images/69687852495353354883.png&quot; rel=&quot;nofollow&quot; target=&quot;_NEW&quot;&gt;\nhttp://www.shotpix.com/images/69687852495353354883.png&lt;/a&gt; &lt;a href=&quot;\nhttp://www.shotpix.com/images/14223476125263414002.png&quot; rel=&quot;nofollow&quot; target=&quot;_NEW&quot;&gt;\nhttp://www.shotpix.com/images/14223476125263414002.png&lt;/a&gt; &lt;a href=&quot;\nhttp://www.shotpix.com/images/31260586183367706249.png&quot; rel=&quot;nofollow&quot; target=&quot;_NEW&quot;&gt;\nhttp://www.shotpix.com/images/31260586183367706249.png&lt;/a&gt; &lt;a href=&quot;\nhttp://www.shotpix.com/images/94165566762992860679.png&quot; rel=&quot;nofollow&quot; target=&quot;_NEW&quot;&gt;\nhttp://www.shotpix.com/images/94165566762992860679.png&lt;/a&gt; &lt;a href=&quot;\nhttp://www.shotpix.com/images/60757011253165537618.png&quot; rel=&quot;nofollow&quot; target=&quot;_NEW&quot;&gt;\nhttp://www.shotpix.com/images/60757011253165537618.png&lt;/a&gt; &lt;a href=&quot;\nhttp://www.shotpix.com/images/39621523693525804228.png&quot; rel=&quot;nofollow&quot; target=&quot;_NEW&quot;&gt;\nhttp://www.shotpix.com/images/39621523693525804228.png&lt;/a&gt;\n\n","torrent":{"xt":"urn:btih:07c81a77fbc8859323ea4ea13f1c2a03ea983185","amp;dn":"Laal+Dupatta+Malmal+Ka+DVDRip+Xvid+MP3+%281989%29","amp;tr":["udp%3A%2F%2Ftracker.openbittorrent.com%3A80","udp%3A%2F%2Fopen.demonii.com%3A1337","udp%3A%2F%2Ftracker.coppersurfer.tk%3A6969","udp%3A%2F%2Fexodus.desync.com%3A6969"],"infoHash":"07c81a77fbc8859323ea4ea13f1c2a03ea983185","infoHashBuffer":{"type":"Buffer","data":[7,200,26,119,251,200,133,147,35,234,78,161,63,28,42,3,234,152,49,133]},"announce":[],"urlList":[]}}